<?xml version="1.0" standalone="no"?>
<!DOCTYPE svg PUBLIC "-//W3C//DTD SVG 20010904//EN"
 "http://www.w3.org/TR/2001/REC-SVG-20010904/DTD/svg10.dtd">
<svg version="1.0" xmlns="http://www.w3.org/2000/svg"
 width="216.000000pt" height="269.000000pt" viewBox="0 0 216.000000 269.000000"
 preserveAspectRatio="xMidYMid meet">

<g transform="translate(0.000000,269.000000) scale(0.100000,-0.100000)"
fill="#000000" stroke="none">
<path d="M670 1776 c0 -8 4 -17 9 -20 5 -4 7 3 4 14 -6 23 -13 26 -13 6z"/>
<path d="M1399 1137 c-14 -18 -27 -22 -70 -22 -53 0 -54 -1 -52 -29 2 -32 -31
-86 -53 -86 -20 0 -17 -34 5 -54 23 -21 33 -66 19 -83 -19 -24 -1 -46 32 -39
26 5 36 0 71 -37 l42 -42 14 23 c22 33 33 27 33 -17 0 -46 14 -60 39 -37 10 9
25 16 33 16 18 0 44 -36 53 -73 4 -16 15 -27 27 -29 12 -2 25 -11 29 -20 5
-10 13 -26 17 -35 5 -10 21 -24 35 -31 18 -9 27 -21 27 -36 0 -31 28 -62 61
-70 38 -8 41 2 14 39 -25 31 -32 55 -17 55 4 0 18 -16 32 -35 29 -40 40 -44
40 -12 0 13 -45 78 -115 166 -63 79 -115 147 -115 151 0 4 9 15 20 25 29 26
25 42 -15 49 -44 9 -53 23 -21 36 28 10 35 37 11 46 -18 7 -35 60 -32 99 2 25
-2 30 -23 33 -45 5 -77 23 -88 48 -14 30 -32 30 -53 1z m-45 -133 c18 -7 23
-94 6 -94 -5 0 -10 5 -10 11 0 7 -10 9 -25 5 -23 -6 -25 -4 -25 28 0 23 6 39
18 45 21 13 17 12 36 5z m97 -14 c29 -16 23 -46 -13 -64 -43 -22 -45 -21 -41
17 8 61 15 67 54 47z m65 -76 c-3 -8 -10 -14 -16 -14 -11 0 -4 64 9 85 8 13
14 -52 7 -71z m92 -188 c31 -41 40 -66 25 -66 -9 1 -83 94 -83 104 0 19 29 0
58 -38z m95 -124 c10 -10 14 -22 10 -25 -7 -8 -43 21 -43 35 0 14 16 9 33 -10z"/>
<path d="M1330 970 c0 -5 5 -10 10 -10 6 0 10 5 10 10 0 6 -4 10 -10 10 -5 0
-10 -4 -10 -10z"/>
</g>
</svg>
