<svg xmlns="http://www.w3.org/2000/svg" version="1.1" xmlns:xlink="http://www.w3.org/1999/xlink" xmlns:svgjs="http://svgjs.com/svgjs" id="BgenPttrnSvgRootPreview" width="100%" height="100%"><defs><pattern x="0" y="0" width="1" height="1" patternUnits="userSpaceOnUse" id="BgenPttrnLayer1"><g id="PatternRootContent1"><g id="BgenPttrnLayer1background"><rect width="1" height="1" id="BgenPttrnBackground1" class="color_1 fill_color_1" fill="#0c4209"></rect></g></g></pattern><pattern x="0" y="0" width="80" height="140" patternUnits="userSpaceOnUse" id="BgenPttrnLayer2" patternTransform="matrix(0.7,0,0,0.7,0,0)"><g id="PatternRootContent2"><g id="BgenPttrnLayer2Element3"><use xlink:href="#BgenPttrnElement3" x="15.246536254882812" y="-93.469970703125" transform="translate(80, -35) scale(1) translate(-80, 35) rotate(90, 80, -35)"></use><use xlink:href="#BgenPttrnElement3" x="-64.75346374511719" y="-93.469970703125" transform="translate(0, -35) scale(1) translate(0, 35) rotate(90, 0, -35)"></use><use xlink:href="#BgenPttrnElement3" x="-24.753463745117188" y="-23.469970703125" transform="translate(40, 35) scale(1) translate(-40, -35) rotate(90, 40, 35)"></use><use xlink:href="#BgenPttrnElement3" x="-104.75346374511719" y="-23.469970703125" transform="translate(-40, 35) scale(1) translate(40, -35) rotate(90, -40, 35)"></use><use xlink:href="#BgenPttrnElement3" x="55.24653625488281" y="-23.469970703125" transform="translate(120, 35) scale(1) translate(-120, -35) rotate(90, 120, 35)"></use><use xlink:href="#BgenPttrnElement3" x="15.246536254882812" y="46.530029296875" transform="translate(80, 105) scale(1) translate(-80, -105) rotate(90, 80, 105)"></use><use xlink:href="#BgenPttrnElement3" x="-64.75346374511719" y="46.530029296875" transform="translate(0, 105) scale(1) translate(0, -105) rotate(90, 0, 105)"></use><use xlink:href="#BgenPttrnElement3" x="-24.753463745117188" y="116.530029296875" transform="translate(40, 175) scale(1) translate(-40, -175) rotate(90, 40, 175)"></use><use xlink:href="#BgenPttrnElement3" x="-24.753463745117188" y="116.530029296875" transform="translate(40, 175) scale(1) translate(-40, -175) rotate(90, 40, 175)"></use></g></g></pattern><symbol id="BgenPttrnElement3"><g class="color_4 fill_color_4" fill="#112113"><path d="M66.364,73.2708969116211l-1.124,-1.124l0,-0.778C68.231,71.15,71.151,69.899,73.436,67.6140365600586c5.076,-5.077,5.076,-13.308,0,-18.385S60.128,44.153,55.051,49.2292594909668s-5.077,13.308,0,18.385c2.284,2.284,5.204,3.536,8.188,3.762l0,0.778L62.122,73.2708969116211l0.014,14.128L66.35,87.39888763427734L66.364,73.2708969116211Zm-8.485,-8.485c-3.514,-3.514,-3.514,-9.214,0,-12.728s9.214,-3.514,12.728,0s3.514,9.214,0,12.728s-9.214,3.514,-12.728,0Z" transform="matrix(1,0,0,1,0,0)"></path><path d="M74.349,92.68219757080078l1.536,-0.412l0.674,0.389C75.253,95.36,74.876,98.515,75.712,101.63435363769531c1.859,6.935,8.987,11.051,15.922,9.192S102.685,101.841,100.826,94.90505981445312s-8.986,-11.051,-15.921,-9.192c-3.12,0.836,-5.664,2.739,-7.352,5.21l-0.674,-0.389L76.47,89.00797271728516l-12.241,-7.052L62.121,85.60595703125L74.349,92.68219757080078Zm11.591,-3.106c4.801,-1.286,9.736,1.563,11.023,6.364s-1.563,9.736,-6.364,11.023s-9.736,-1.563,-11.023,-6.364s1.563,-9.736,6.364,-11.023Z" transform="matrix(1,0,0,1,0,0)"></path><path d="M53.546,89.89131927490234l-0.412,1.536l-0.674,0.389C50.775,89.336,48.231,87.433,45.111,86.59601593017578c-6.935,-1.858,-14.063,2.257,-15.921,9.192S31.447,109.852,38.382,111.71009063720703s14.063,-2.257,15.922,-9.192c0.836,-3.12,0.46,-6.275,-0.836,-8.972l0.674,-0.389L55.667,93.56554412841797l12.228,-7.076L65.788,82.83956146240234L53.546,89.89131927490234Zm-3.106,11.591c-1.286,4.801,-6.222,7.65,-11.023,6.364s-7.65,-6.222,-6.364,-11.023s6.222,-7.65,11.023,-6.364s7.65,6.222,6.364,11.023Z" transform="matrix(1,0,0,1,0,0)"></path><path d="M52.741,67.26563262939453l0.411,-1.535l0.674,-0.389C55.511,67.822,58.055,69.725,61.175,70.56087493896484c6.936,1.858,14.064,-2.257,15.922,-9.193S74.84,47.306,67.905,45.44746780395508s-14.063,2.257,-15.922,9.193c-0.836,3.12,-0.46,6.275,0.836,8.972l-0.674,0.389L50.62,63.59194564819336l-12.228,7.076L40.499,74.3175048828125L52.741,67.26563262939453Zm3.106,-11.591c1.286,-4.8,6.223,-7.65,11.023,-6.364s7.65,6.223,6.364,11.023s-6.223,7.65,-11.023,6.364s-7.65,-6.223,-6.364,-11.023Z" transform="matrix(1,0,0,1,0,0)"></path><path d="M39.923,83.8864974975586l1.125,1.124l0,0.778C38.056,86.008,35.135,87.259,32.852,89.54296875c-5.077,5.077,-5.077,13.308,0,18.385S46.159,113.006,51.236,107.92768096923828s5.078,-13.308,0,-18.384c-2.284,-2.284,-5.204,-3.536,-8.188,-3.762l0,-0.778L44.165,83.88622283935547l-0.013,-14.128L39.937,69.75861358642578L39.923,83.8864974975586Zm8.485,8.485c3.514,3.515,3.514,9.213,0,12.728s-9.213,3.514,-12.728,0s-3.514,-9.213,0,-12.728s9.213,-3.514,12.728,0Z" transform="matrix(1,0,0,1,0,0)"></path><path d="M31.938,64.47512817382812l-1.536,0.411l-0.674,-0.389C31.034,61.798,31.41,58.643,30.575,55.522552490234375c-1.859,-6.935,-8.987,-11.05,-15.921,-9.192S3.602,55.317,5.461,62.25210189819336s8.986,11.05,15.921,9.193c3.12,-0.836,5.664,-2.739,7.352,-5.21l0.674,0.389L29.817,68.14908599853516l12.242,7.052L44.166,71.55113983154297L31.938,64.47512817382812Zm-11.591,3.106c-4.801,1.287,-9.736,-1.563,-11.023,-6.364s1.563,-9.736,6.364,-11.023s9.736,1.563,11.023,6.364s-1.563,9.736,-6.364,11.023Z" transform="matrix(1,0,0,1,0,0)"></path><path d="M51.13,52.46471405029297l1.535,-0.411l0.674,0.389C52.033,55.142,51.657,58.296,52.493,61.41680908203125c1.859,6.935,8.987,11.051,15.922,9.193S79.465,61.623,77.607,54.68818664550781s-8.986,-11.051,-15.922,-9.193c-3.12,0.836,-5.664,2.739,-7.352,5.21l-0.674,-0.389L53.251,48.79103088378906l-12.242,-7.052L38.902,45.38859176635742L51.13,52.46471405029297Zm11.591,-3.106c4.8,-1.286,9.737,1.564,11.023,6.364s-1.564,9.737,-6.364,11.023s-9.737,-1.564,-11.023,-6.364s1.564,-9.737,6.364,-11.023Z" transform="matrix(1,0,0,1,0,0)"></path><path d="M30.327,49.67427444458008l-0.411,1.536l-0.674,0.389C27.556,49.118,25.012,47.214,21.893,46.37858963012695c-6.936,-1.858,-14.064,2.257,-15.922,9.193S8.227,69.635,15.163,71.49259948730469s14.064,-2.257,15.921,-9.192c0.836,-3.12,0.46,-6.275,-0.836,-8.972l0.674,-0.389L32.448,53.34823226928711l12.228,-7.076L42.569,42.62263488769531L30.327,49.67427444458008Zm-3.106,11.591c-1.287,4.801,-6.222,7.65,-11.023,6.364s-7.65,-6.222,-6.364,-11.023s6.222,-7.65,11.023,-6.364s7.65,6.222,6.364,11.023Z" transform="matrix(1,0,0,1,0,0)"></path><path d="M43.145,33.05378723144531l-1.124,-1.125l0,-0.778C45.012,30.932,47.932,29.68,50.217,27.396514892578125c5.076,-5.077,5.076,-13.307,0,-18.384S36.908,3.935,31.832,9.011992454528809s-5.077,13.307,-0.001,18.385c2.284,2.284,5.204,3.536,8.188,3.762l0,0.778L38.903,33.05351257324219l0.014,14.128L43.131,47.18154525756836L43.145,33.05378723144531Zm-8.485,-8.485c-3.515,-3.514,-3.514,-9.213,0,-12.728s9.213,-3.514,12.728,0s3.514,9.213,0,12.728s-9.213,3.514,-12.728,0Z" transform="matrix(1,0,0,1,0,0)"></path><path d="M63.142,43.66905975341797l1.124,1.124l0,0.778C61.275,45.79,58.355,47.041,56.071,49.3259162902832c-5.077,5.077,-5.077,13.308,0,18.385S69.378,72.787,74.455,67.710693359375s5.077,-13.308,0,-18.385c-2.284,-2.284,-5.204,-3.536,-8.188,-3.762l0,-0.778L67.384,43.66905975341797l-0.014,-14.128L63.156,29.541065216064453L63.142,43.66905975341797Zm8.485,8.485c3.514,3.514,3.514,9.214,0,12.728s-9.214,3.514,-12.728,0s-3.514,-9.214,0,-12.728s9.214,-3.514,12.728,0Z" transform="matrix(1,0,0,1,0,0)"></path><path d="M55.157,24.25775146484375l-1.536,0.412l-0.674,-0.389C54.253,21.58,54.63,18.425,53.794,15.3056001663208c-1.859,-6.935,-8.987,-11.051,-15.922,-9.192S26.821,15.099,28.68,22.034893035888672s8.986,11.051,15.921,9.192c3.12,-0.836,5.664,-2.739,7.352,-5.21l0.674,0.389L53.036,27.931983947753906l12.242,7.052L67.385,31.333995819091797L55.157,24.25775146484375Zm-11.591,3.106c-4.801,1.286,-9.736,-1.563,-11.023,-6.364s1.563,-9.736,6.364,-11.023s9.736,1.563,11.023,6.364s-1.563,9.736,-6.364,11.023Z" transform="matrix(1,0,0,1,0,0)"></path><path d="M75.96,27.04863739013672l0.412,-1.536l0.674,-0.389C78.731,27.604,81.275,29.507,84.395,30.343936920166016c6.935,1.858,14.063,-2.257,15.921,-9.192S98.059,7.088,91.124,5.229863166809082s-14.063,2.257,-15.922,9.192c-0.836,3.12,-0.46,6.275,0.836,8.972l-0.674,0.389L73.839,23.374404907226562l-12.228,7.076L63.718,34.10038757324219L75.96,27.04863739013672Zm3.106,-11.591c1.286,-4.801,6.222,-7.65,11.023,-6.364s7.65,6.222,6.364,11.023s-6.222,7.65,-11.023,6.364s-7.65,-6.222,-6.364,-11.023Z" transform="matrix(1,0,0,1,0,0)"></path><path d="M76.766,49.674320220947266l-0.412,1.535l-0.674,0.389C73.996,49.118,71.452,47.215,68.331,46.37908172607422c-6.935,-1.858,-14.063,2.257,-15.921,9.192S54.667,69.634,61.602,71.49248504638672s14.063,-2.257,15.922,-9.193c0.836,-3.12,0.46,-6.275,-0.836,-8.972l0.674,-0.389L78.887,53.34800338745117l12.228,-7.076L89.008,42.6224479675293L76.766,49.674320220947266Zm-3.106,11.591c-1.286,4.8,-6.223,7.65,-11.023,6.364s-7.65,-6.223,-6.364,-11.023s6.223,-7.65,11.023,-6.364s7.65,6.223,6.364,11.023Z" transform="matrix(1,0,0,1,0,0)"></path><path d="M89.584,33.05345153808594l-1.125,-1.124l0,-0.778C91.451,30.932,94.372,29.681,96.655,27.396987915039062c5.077,-5.077,5.077,-13.308,0,-18.385S83.348,3.934,78.271,9.012271881103516s-5.078,13.308,0,18.384c2.284,2.284,5.204,3.536,8.188,3.762l0,0.778L85.342,33.05372619628906l0.013,14.128L89.57,47.18133544921875L89.584,33.05345153808594Zm-8.485,-8.485c-3.514,-3.515,-3.514,-9.213,0,-12.728s9.213,-3.514,12.728,0s3.514,9.213,0,12.728s-9.213,3.514,-12.728,0Z" transform="matrix(1,0,0,1,0,0)"></path><path d="M97.569,52.46482467651367l1.536,-0.411l0.674,0.389C98.473,55.142,98.097,58.297,98.932,61.417396545410156c1.859,6.935,8.986,11.05,15.921,9.192S125.905,61.623,124.046,54.687843322753906s-8.986,-11.05,-15.921,-9.193c-3.12,0.836,-5.664,2.739,-7.352,5.21l-0.674,-0.389L99.69,48.79086685180664l-12.242,-7.052L85.341,45.388816833496094L97.569,52.46482467651367Zm11.591,-3.106c4.801,-1.287,9.736,1.563,11.023,6.364s-1.563,9.736,-6.364,11.023s-9.736,-1.563,-11.023,-6.364s1.563,-9.736,6.364,-11.023Z" transform="matrix(1,0,0,1,0,0)"></path><path d="M78.377,64.4752426147461l-1.535,0.411l-0.674,-0.389C77.474,61.798,77.85,58.644,77.013,55.52313995361328c-1.858,-6.935,-8.986,-11.051,-15.921,-9.193S50.042,55.317,51.9,62.25176239013672s8.986,11.051,15.922,9.193c3.12,-0.836,5.664,-2.739,7.352,-5.21l0.674,0.389L76.256,68.14891815185547l12.242,7.052L90.605,71.55136108398438L78.377,64.4752426147461Zm-11.591,3.106c-4.8,1.286,-9.737,-1.564,-11.023,-6.364s1.564,-9.737,6.364,-11.023s9.737,1.564,11.023,6.364s-1.564,9.737,-6.364,11.023Z" transform="matrix(1,0,0,1,0,0)"></path><path d="M99.18,67.26567840576172l0.411,-1.536l0.674,-0.389C101.951,67.822,104.495,69.726,107.614,70.56136322021484c6.936,1.858,14.064,-2.257,15.922,-9.193S121.28,47.305,114.344,45.44735336303711s-14.064,2.257,-15.921,9.192c-0.836,3.12,-0.46,6.275,0.836,8.972l-0.674,0.389L97.059,63.59171676635742l-12.229,7.076L86.938,74.31731414794922L99.18,67.26567840576172Zm3.106,-11.591c1.287,-4.801,6.222,-7.65,11.023,-6.364s7.65,6.222,6.364,11.023s-6.222,7.65,-11.023,6.364s-7.65,-6.222,-6.364,-11.023Z" transform="matrix(1,0,0,1,0,0)"></path><path d="M86.362,83.88616180419922l1.124,1.125l0,0.778C84.495,86.008,81.575,87.26,79.29,89.54344177246094c-5.076,5.077,-5.077,13.307,0,18.384S92.599,113.005,97.675,107.92796325683594s5.077,-13.307,0.001,-18.385c-2.284,-2.284,-5.204,-3.536,-8.188,-3.762l0,-0.778L90.604,83.88643646240234l-0.014,-14.128L86.376,69.75840759277344L86.362,83.88616180419922Zm8.485,8.485c3.515,3.514,3.514,9.213,0,12.728s-9.213,3.514,-12.728,0s-3.514,-9.213,0,-12.728s9.213,-3.514,12.728,0Z" transform="matrix(1,0,0,1,0,0)"></path></g></symbol></defs><rect width="100%" height="100%" id="BgenPttrnRctLayer1" fill="url(#BgenPttrnLayer1)"></rect><rect width="100%" height="100%" id="BgenPttrnRctLayer2" fill="url(#BgenPttrnLayer2)"></rect></svg>