<svg xmlns="http://www.w3.org/2000/svg" version="1.1" xmlns:xlink="http://www.w3.org/1999/xlink" xmlns:svgjs="http://svgjs.com/svgjs" id="BgenPttrnSvgRootPreview" width="100%" height="100%"><defs><pattern x="0" y="0" width="1" height="1" patternUnits="userSpaceOnUse" id="BgenPttrnLayer1"><g id="PatternRootContent1"><g id="BgenPttrnLayer1background"><rect width="1" height="1" id="BgenPttrnBackground1" class="color_1 fill_color_1" fill="#064703"></rect></g></g></pattern><pattern x="0" y="0" width="20" height="40" patternUnits="userSpaceOnUse" id="BgenPttrnLayer2" patternTransform="matrix(1,0,0,1,0,0)"><g id="PatternRootContent2"><g id="BgenPttrnLayer2Element1"><use xlink:href="#BgenPttrnElement1" x="-2" y="-2" transform="translate(4, 4) scale(1) translate(-4, -4) rotate(0, 10, 10)"></use><use xlink:href="#BgenPttrnElement1" x="8" y="18" transform="translate(14, 24) scale(1) translate(-14, -24) rotate(0, 20, 30)"></use><use xlink:href="#BgenPttrnElement1" x="-12" y="18" transform="translate(-6, 24) scale(1) translate(6, -24) rotate(0, 0, 30)"></use></g></g></pattern><symbol id="BgenPttrnElement1"><path d="M8.59,16.58L13.17,12L8.59,7.41L10,6L16,12L10,18L8.59,16.58Z" class="color_2 fill_color_2" fill="#0e2911"></path></symbol></defs><rect width="100%" height="100%" id="BgenPttrnRctLayer1" fill="url(#BgenPttrnLayer1)"></rect><rect width="100%" height="100%" id="BgenPttrnRctLayer2" fill="url(#BgenPttrnLayer2)"></rect></svg>