<?xml version="1.0" standalone="no"?>
<!DOCTYPE svg PUBLIC "-//W3C//DTD SVG 20010904//EN"
 "http://www.w3.org/TR/2001/REC-SVG-20010904/DTD/svg10.dtd">
<svg version="1.0" xmlns="http://www.w3.org/2000/svg"
 width="32.000000pt" height="32.000000pt" viewBox="0 0 32.000000 32.000000"
 preserveAspectRatio="xMidYMid meet">

<g transform="translate(0.000000,32.000000) scale(0.100000,-0.100000)"
fill="#000000" stroke="none">
<path d="M52 305 c3 -16 14 -21 62 -27 32 -4 74 -17 94 -29 36 -20 37 -20 14
0 -26 22 -81 41 -124 41 -15 0 -32 8 -38 18 -10 16 -10 15 -8 -3z"/>
<path d="M30 240 c-17 -5 -2 -7 47 -8 111 -1 157 -30 177 -114 5 -21 3 -28 -8
-28 -7 0 -16 13 -19 30 -4 16 -16 39 -28 51 l-22 22 -9 -24 c-6 -15 -5 -40 1
-66 12 -47 7 -69 -20 -83 -27 -15 -38 -12 -65 17 l-26 28 13 -28 c14 -32 48
-44 78 -28 35 19 43 45 30 96 -15 58 0 81 26 41 12 -18 15 -36 11 -58 -13 -73
51 -115 84 -56 12 23 13 31 2 48 -6 11 -12 34 -12 50 0 29 -24 90 -36 90 -2 0
2 -13 11 -30 8 -16 15 -46 14 -67 l-1 -38 -14 47 c-18 59 -58 93 -124 107 -57
12 -74 12 -110 1z m258 -193 c-5 -33 -52 -30 -56 4 -3 23 0 25 28 21 25 -4 30
-9 28 -25z"/>
<path d="M21 171 c-10 -7 -4 -9 20 -8 l34 2 -2 -45 -2 -45 10 40 c5 21 7 45 5
52 -6 15 -44 17 -65 4z"/>
<path d="M102 108 c-28 -28 -3 -85 32 -72 22 8 31 50 16 69 -15 18 -32 19 -48
3z m43 -18 c9 -28 -13 -54 -31 -39 -15 12 -19 41 -7 52 13 13 32 7 38 -13z"/>
</g>
</svg>
